Coordinates
version=1
nRows=24
nColumns=22
inDegrees=yes

Units are S.I. units (second, meters, Newtons, ...)
If the header above contains a line with 'inDegrees', this indicates whether rotational values are in degrees (yes) or radians (no).

endheader
time	pelvis_tilt	pelvis_list	pelvis_rotation	pelvis_tx	pelvis_ty	pelvis_tz	hip_flexion_r	hip_adduction_r	hip_rotation_r	knee_angle_r	ankle_angle_r	subtalar_angle_r	hip_flexion_l	hip_adduction_l	hip_rotation_l	knee_angle_l	ankle_angle_l	subtalar_angle_l	lumbar_extension	lumbar_bending	lumbar_rotation
      2.69000000	      8.73074299	      0.83853561	      6.65048325	      0.45568762	      0.93424434	     -0.11484796	      3.54448718	     -1.32096594	     -4.42559442	    -59.25808390	     -1.97748331	      9.56406855	      8.63607971	      4.07990548	     -2.26536036	    -28.90983039	     19.55130703	    -17.59116589	    -14.83203496	     -0.13192657	     -9.87808031
      2.70000000	      8.48918270	      1.01227373	      6.52374113	      0.44637039	      0.93247403	     -0.11427145	      2.07565631	     -1.16050377	     -4.38390055	    -58.79896187	     -2.68720572	      9.86032155	      9.71593832	      4.30008960	     -2.45119003	    -29.24240952	     19.05358867	    -17.58052132	    -14.54811805	     -0.38655579	     -9.39870726
      2.71000000	      8.27740651	      1.12757596	      6.37988388	      0.43695166	      0.93067396	     -0.11362628	      0.56643864	     -0.90374153	     -4.29315134	    -58.09645064	     -3.32698377	     10.44233353	     10.80732194	      4.42888262	     -2.71131612	    -29.62907338	     18.60668611	    -17.46008233	    -14.28713406	     -0.56609965	     -8.91031272
      2.72000000	      8.08094253	      1.19823312	      6.20998223	      0.42740682	      0.92888168	     -0.11293779	     -0.95515802	     -0.58220746	     -4.15257745	    -57.15315546	     -3.86913952	     10.70297716	     11.88109923	      4.51560800	     -2.91684396	    -29.98284988	     18.08947590	    -17.45781669	    -14.03457558	     -0.68829782	     -8.37341858
      2.73000000	      7.91868482	      1.22512975	      6.02193504	      0.41772005	      0.92710554	     -0.11222173	     -2.50470059	     -0.19226114	     -3.94324279	    -55.97009018	     -4.25066786	     11.12484068	     12.92803188	      4.54537395	     -3.13311448	    -30.32439958	     17.54041019	    -17.40427617	    -13.81732508	     -0.74447632	     -7.83788589
      2.74000000	      7.76740787	      1.21103841	      5.79688303	      0.40782579	      0.92529645	     -0.11144431	     -4.02659992	      0.24469241	     -3.65979118	    -54.57558747	     -4.53737872	     11.23982248	     13.97727570	      4.53089807	     -3.33167348	    -30.65668136	     16.98963336	    -17.49443408	    -13.61888616	     -0.74867064	     -7.27838593
      2.75000000	      7.65170982	      1.16883186	      5.53776303	      0.39769405	      0.92349605	     -0.11062985	     -5.54477718	      0.70983870	     -3.29125173	    -52.96916441	     -4.65685329	     11.36744553	     14.99233692	      4.48254076	     -3.51784430	    -30.96046922	     16.40397859	    -17.59271141	    -13.47944837	     -0.70716429	     -6.70116809
      2.76000000	      7.54108359	      1.11268132	      5.24523239	      0.38730382	      0.92165681	     -0.10975457	     -7.01329313	      1.17415481	     -2.84844484	    -51.16767430	     -4.58487395	     11.39078830	     16.00072073	      4.41370383	     -3.70588722	    -31.22272443	     15.76144081	    -17.73601362	    -13.36395401	     -0.64403379	     -6.14601571
      2.77000000	      7.44386020	      1.03872599	      4.91004951	      0.37661662	      0.91979745	     -0.10879478	     -8.42613661	      1.63080642	     -2.33002775	    -49.18714415	     -4.28991461	     11.30012306	     16.98544326	      4.31783717	     -3.88237900	    -31.42539321	     15.07593151	    -17.91097655	    -13.29203418	     -0.56058223	     -5.57821331
      2.78000000	      7.36479492	      0.95562189	      4.52353837	      0.36562157	      0.91795067	     -0.10771131	     -9.77917902	      2.06923137	     -1.71607580	    -47.04608731	     -3.70896488	     11.02741005	     17.92223517	      4.19618718	     -4.05696836	    -31.53299839	     14.35756759	    -18.10840812	    -13.27271039	     -0.47023235	     -5.00988327
      2.79000000	      7.27974631	      0.86770735	      4.11081043	      0.35428046	      0.91606435	     -0.10653671	    -11.02125742	      2.45821042	     -1.09673371	    -44.80594922	     -2.73523521	     10.58972271	     18.85325443	      4.04879355	     -4.24208111	    -31.56675532	     13.55522893	    -18.30631664	    -13.28473771	     -0.37840332	     -4.46587646
      2.80000000	      7.19502015	      0.77806859	      3.68389776	      0.34257992	      0.91419016	     -0.10530176	    -12.13760431	      2.77971876	     -0.54186533	    -42.51721686	     -1.35571726	      9.85478174	     19.75572905	      3.88224066	     -4.41932163	    -31.49353204	     12.61086865	    -18.46278022	    -13.33841317	     -0.28462919	     -3.94106547
      2.81000000	      7.08943878	      0.66564126	      3.22774833	      0.33051022	      0.91231631	     -0.10395428	    -13.07045920	      3.06626473	     -0.01616830	    -40.26825630	      0.50400961	      9.20810318	     20.64197113	      3.66521913	     -4.58527721	    -31.29064102	     11.59790765	    -18.53171184	    -13.40915740	     -0.17287824	     -3.41668066
      2.82000000	      6.97729193	      0.54110465	      2.76860558	      0.31807395	      0.91051182	     -0.10253971	    -13.81221474	      3.30350033	      0.38495779	    -38.13476732	      2.78247293	      8.51438153	     21.48563481	      3.40680446	     -4.74846508	    -30.93445857	     10.44991222	    -18.48378504	    -13.51676004	     -0.04989300	     -2.93463296
      2.83000000	      6.86611851	      0.38875241	      2.33155010	      0.30528184	      0.90883149	     -0.10110639	    -14.35361908	      3.52132644	      0.61457684	    -36.17393954	      5.38490528	      7.69939673	     22.27466852	      3.09166525	     -4.90999797	    -30.41512521	      9.14162894	    -18.26271174	    -13.66969274	      0.11157840	     -2.51775516
      2.84000000	      6.74693652	      0.22207677	      1.90279023	      0.29214015	      0.90731878	     -0.09966098	    -14.65761158	      3.71292199	      0.67258182	    -34.46052248	      8.19815718	      6.84056837	     22.98463917	      2.74204297	     -5.04340048	    -29.66958850	      7.64136162	    -17.87222193	    -13.85753004	      0.29028961	     -2.09361738
      2.85000000	      6.62276294	      0.04139744	      1.50982183	      0.27869846	      0.90601812	     -0.09824164	    -14.73986981	      3.90486204	      0.56156654	    -32.98757980	     11.06010002	      5.83716538	     23.60867728	      2.35974873	     -5.17179690	    -28.69597467	      5.92993060	    -17.28534854	    -14.07776412	      0.49004503	     -1.72040040
      2.86000000	      6.49078100	     -0.14010398	      1.16217191	      0.26501048	      0.90496222	     -0.09689801	    -14.61137860	      4.10156131	      0.31943299	    -31.74312591	     13.81993957	      4.64340581	     24.13586056	      1.96946811	     -5.29997437	    -27.48067547	      3.99291042	    -16.50301484	    -14.31887135	      0.70135490	     -1.39799782
      2.87000000	      6.36622660	     -0.32603679	      0.86912315	      0.25111398	      0.90417407	     -0.09566873	    -14.30055369	      4.31310392	     -0.04301267	    -30.71817948	     16.36013167	      3.21716186	     24.56181888	      1.57195296	     -5.45604504	    -26.06578040	      1.85251924	    -15.52962571	    -14.59404599	      0.93154467	     -1.11210948
      2.88000000	      6.23625050	     -0.47751541	      0.63567922	      0.23713472	      0.90366521	     -0.09457745	    -13.83238156	      4.51323957	     -0.44570813	    -29.87032730	     18.58706468	      1.63844998	     24.88076763	      1.22246465	     -5.64223926	    -24.45079513	     -0.46254696	    -14.39956495	    -14.86613429	      1.13522036	     -0.90315071
      2.89000000	      6.12576373	     -0.60612699	      0.46850025	      0.22313258	      0.90344183	     -0.09365226	    -13.24976099	      4.70703016	     -0.88946127	    -29.19065294	     20.48143846	     -0.05050060	     25.09728748	      0.91138473	     -5.89130626	    -22.74094775	     -2.84150991	    -13.13284641	    -15.15634041	      1.33004864	     -0.76247578
      2.90000000	      6.03639623	     -0.69673538	      0.36861068	      0.20922587	      0.90350076	     -0.09289768	    -12.58433659	      4.87489876	     -1.34058442	    -28.65164197	     22.02934563	     -1.70871998	     25.21033631	      0.66439193	     -6.17615885	    -21.00290302	     -5.14582583	    -11.77262921	    -15.44720550	      1.49757693	     -0.70544475
      2.91000000	      5.98355186	     -0.75934571	      0.34440065	      0.19549504	      0.90384064	     -0.09231608	    -11.87547443	      5.02529375	     -1.77843305	    -28.23511851	     23.24717754	     -3.25043283	     25.22577212	      0.47636492	     -6.45753936	    -19.34924991	     -7.20077267	    -10.33438647	    -15.74594936	      1.64973776	     -0.74116786
      2.92000000	      5.97394511	     -0.80732170	      0.39847305	      0.18202038	      0.90445707	     -0.09187910	    -11.15296723	      5.16715295	     -2.19782778	    -27.91797327	     24.15032406	     -4.58358707	     25.16685247	      0.32515522	     -6.71423308	    -17.91509755	     -8.83643663	     -8.91452668	    -16.04826102	      1.79810082	     -0.87078488
